<?xml version="1.0" standalone="no"?>
<!DOCTYPE svg PUBLIC "-//W3C//DTD SVG 20010904//EN"
 "http://www.w3.org/TR/2001/REC-SVG-20010904/DTD/svg10.dtd">
<svg version="1.0" xmlns="http://www.w3.org/2000/svg"
 width="200.000000pt" height="200.000000pt" viewBox="0 0 200.000000 200.000000"
 preserveAspectRatio="xMidYMid meet">
<metadata>
Created by potrace 1.11, written by Peter Selinger 2001-2013
</metadata>
<g transform="translate(0.000000,200.000000) scale(0.100000,-0.100000)"
fill="#000000" stroke="none">
<path d="M928 1445 c-2 -1 -25 -5 -53 -8 -71 -9 -103 -15 -160 -34 -27 -10
-53 -17 -57 -18 -4 0 -29 -17 -57 -37 -140 -105 -168 -256 -79 -432 16 -34 39
-79 50 -101 12 -22 23 -42 27 -45 3 -3 22 -30 43 -61 85 -131 219 -239 299
-241 17 -1 33 -6 35 -12 2 -6 5 -75 7 -153 3 -124 2 -142 -12 -146 -13 -3 -16
-17 -15 -73 1 -38 2 -72 3 -76 1 -5 53 -8 117 -8 l116 0 -7 58 c-4 31 -8 65
-9 75 0 10 -7 21 -14 26 -9 5 -14 55 -18 176 -3 93 -7 172 -10 176 -2 4 10 17
27 30 118 84 231 244 285 404 52 158 25 314 -71 398 -33 29 -128 75 -171 83
-21 3 -48 9 -59 11 -23 5 -212 12 -217 8z"/>
</g>
</svg>
